<svg width="240" height="240" viewBox="0 0 240 240" fill="none" xmlns="http://www.w3.org/2000/svg">
	<g clip-path="url(#clip0_714_2148)">
		<path d="M117.615 90.759H121.39V112.092H142.723V115.703H121.39V137.2H117.615V115.703H96.4462V112.092H117.615V90.759Z" fill="#353E5E" />
		<path d="M33.8125 155H31.875C31.7604 154.443 31.5599 153.953 31.2734 153.531C30.9922 153.109 30.6484 152.755 30.2422 152.469C29.8411 152.177 29.3958 151.958 28.9063 151.812C28.4167 151.667 27.9063 151.594 27.375 151.594C26.4063 151.594 25.5286 151.839 24.7422 152.328C23.9609 152.818 23.3385 153.539 22.875 154.492C22.4167 155.445 22.1875 156.615 22.1875 158C22.1875 159.385 22.4167 160.555 22.875 161.508C23.3385 162.461 23.9609 163.182 24.7422 163.672C25.5286 164.161 26.4063 164.406 27.375 164.406C27.9063 164.406 28.4167 164.333 28.9063 164.187C29.3958 164.042 29.8411 163.826 30.2422 163.539C30.6484 163.247 30.9922 162.891 31.2734 162.469C31.5599 162.042 31.7604 161.552 31.875 161H33.8125C33.6667 161.818 33.401 162.549 33.0156 163.195C32.6302 163.841 32.151 164.391 31.5781 164.844C31.0052 165.292 30.362 165.633 29.6484 165.867C28.9401 166.102 28.1823 166.219 27.375 166.219C26.0104 166.219 24.7969 165.885 23.7344 165.219C22.6719 164.552 21.8359 163.604 21.2266 162.375C20.6172 161.146 20.3125 159.687 20.3125 158C20.3125 156.312 20.6172 154.854 21.2266 153.625C21.8359 152.396 22.6719 151.448 23.7344 150.781C24.7969 150.115 26.0104 149.781 27.375 149.781C28.1823 149.781 28.9401 149.898 29.6484 150.133C30.362 150.367 31.0052 150.711 31.5781 151.164C32.151 151.612 32.6302 152.159 33.0156 152.805C33.401 153.445 33.6667 154.177 33.8125 155ZM36.6934 166V154H38.4746V155.812H38.5996C38.8184 155.219 39.2142 154.737 39.7871 154.367C40.36 153.997 41.0059 153.812 41.7246 153.812C41.86 153.812 42.0293 153.815 42.2324 153.82C42.4355 153.826 42.5892 153.833 42.6934 153.844V155.719C42.6309 155.703 42.4876 155.68 42.2637 155.648C42.0449 155.612 41.8132 155.594 41.5684 155.594C40.985 155.594 40.4642 155.716 40.0059 155.961C39.5527 156.201 39.1934 156.534 38.9277 156.961C38.6673 157.383 38.5371 157.865 38.5371 158.406V166H36.6934ZM49.5449 166.25C48.3887 166.25 47.3913 165.995 46.5527 165.484C45.7194 164.969 45.0762 164.25 44.623 163.328C44.1751 162.401 43.9512 161.323 43.9512 160.094C43.9512 158.865 44.1751 157.781 44.623 156.844C45.0762 155.901 45.7064 155.167 46.5137 154.641C47.3262 154.109 48.2741 153.844 49.3574 153.844C49.9824 153.844 50.5996 153.948 51.209 154.156C51.8184 154.365 52.373 154.703 52.873 155.172C53.373 155.635 53.7715 156.25 54.0684 157.016C54.3652 157.781 54.5137 158.724 54.5137 159.844V160.625H45.2637V159.031H52.6387C52.6387 158.354 52.5033 157.75 52.2324 157.219C51.9668 156.687 51.5866 156.268 51.0918 155.961C50.6022 155.654 50.0241 155.5 49.3574 155.5C48.623 155.5 47.9876 155.682 47.4512 156.047C46.9199 156.406 46.5111 156.875 46.2246 157.453C45.9382 158.031 45.7949 158.651 45.7949 159.312V160.375C45.7949 161.281 45.9512 162.049 46.2637 162.68C46.5814 163.305 47.0215 163.781 47.584 164.109C48.1465 164.432 48.8001 164.594 49.5449 164.594C50.0293 164.594 50.4668 164.526 50.8574 164.391C51.2533 164.25 51.5944 164.042 51.8809 163.766C52.1673 163.484 52.3887 163.135 52.5449 162.719L54.3262 163.219C54.1387 163.823 53.8236 164.354 53.3809 164.812C52.9382 165.266 52.3913 165.62 51.7402 165.875C51.0892 166.125 50.3574 166.25 49.5449 166.25ZM60.8496 166.281C60.0892 166.281 59.3991 166.138 58.7793 165.852C58.1595 165.56 57.6673 165.141 57.3027 164.594C56.9382 164.042 56.7559 163.375 56.7559 162.594C56.7559 161.906 56.8913 161.349 57.1621 160.922C57.4329 160.49 57.7949 160.151 58.248 159.906C58.7012 159.661 59.2012 159.479 59.748 159.359C60.3001 159.234 60.8548 159.135 61.4121 159.063C62.1413 158.969 62.7324 158.898 63.1855 158.852C63.6439 158.799 63.9772 158.714 64.1855 158.594C64.3991 158.474 64.5059 158.266 64.5059 157.969V157.906C64.5059 157.135 64.2949 156.536 63.873 156.109C63.4564 155.682 62.8236 155.469 61.9746 155.469C61.0944 155.469 60.4043 155.661 59.9043 156.047C59.4043 156.432 59.0527 156.844 58.8496 157.281L57.0996 156.656C57.4121 155.927 57.8288 155.359 58.3496 154.953C58.8757 154.542 59.4486 154.255 60.0684 154.094C60.6934 153.927 61.3079 153.844 61.9121 153.844C62.2975 153.844 62.7402 153.891 63.2402 153.984C63.7454 154.073 64.2324 154.258 64.7012 154.539C65.1751 154.82 65.5684 155.245 65.8809 155.812C66.1934 156.38 66.3496 157.141 66.3496 158.094V166H64.5059V164.375H64.4121C64.2871 164.635 64.0788 164.914 63.7871 165.211C63.4954 165.508 63.1074 165.76 62.623 165.969C62.1387 166.177 61.5475 166.281 60.8496 166.281ZM61.1309 164.625C61.86 164.625 62.4746 164.482 62.9746 164.195C63.4798 163.909 63.86 163.539 64.1152 163.086C64.3757 162.633 64.5059 162.156 64.5059 161.656V159.969C64.4277 160.062 64.2559 160.148 63.9902 160.227C63.7298 160.299 63.4277 160.365 63.084 160.422C62.7454 160.474 62.4147 160.521 62.0918 160.562C61.7741 160.599 61.5163 160.63 61.3184 160.656C60.8392 160.719 60.3913 160.82 59.9746 160.961C59.5632 161.096 59.2298 161.302 58.9746 161.578C58.7246 161.849 58.5996 162.219 58.5996 162.687C58.5996 163.328 58.8366 163.812 59.3105 164.141C59.7897 164.464 60.3965 164.625 61.1309 164.625ZM74.9336 154V155.562H68.7148V154H74.9336ZM70.5273 151.125H72.3711V162.562C72.3711 163.083 72.4466 163.474 72.5977 163.734C72.7539 163.99 72.9518 164.161 73.1914 164.25C73.4362 164.333 73.694 164.375 73.9648 164.375C74.168 164.375 74.3346 164.365 74.4648 164.344C74.5951 164.318 74.6992 164.297 74.7773 164.281L75.1523 165.937C75.0273 165.984 74.8529 166.031 74.6289 166.078C74.4049 166.13 74.1211 166.156 73.7773 166.156C73.2565 166.156 72.7461 166.044 72.2461 165.82C71.7513 165.596 71.3398 165.255 71.0117 164.797C70.6888 164.339 70.5273 163.76 70.5273 163.062V151.125ZM82.6094 166.25C81.4531 166.25 80.4557 165.995 79.6172 165.484C78.7839 164.969 78.1406 164.25 77.6875 163.328C77.2396 162.401 77.0156 161.323 77.0156 160.094C77.0156 158.865 77.2396 157.781 77.6875 156.844C78.1406 155.901 78.7708 155.167 79.5781 154.641C80.3906 154.109 81.3385 153.844 82.4219 153.844C83.0469 153.844 83.6641 153.948 84.2734 154.156C84.8828 154.365 85.4375 154.703 85.9375 155.172C86.4375 155.635 86.8359 156.25 87.1328 157.016C87.4297 157.781 87.5781 158.724 87.5781 159.844V160.625H78.3281V159.031H85.7031C85.7031 158.354 85.5677 157.75 85.2969 157.219C85.0313 156.687 84.651 156.268 84.1563 155.961C83.6667 155.654 83.0885 155.5 82.4219 155.5C81.6875 155.5 81.0521 155.682 80.5156 156.047C79.9844 156.406 79.5755 156.875 79.2891 157.453C79.0026 158.031 78.8594 158.651 78.8594 159.312V160.375C78.8594 161.281 79.0156 162.049 79.3281 162.68C79.6458 163.305 80.0859 163.781 80.6484 164.109C81.2109 164.432 81.8646 164.594 82.6094 164.594C83.0938 164.594 83.5313 164.526 83.9219 164.391C84.3177 164.25 84.6589 164.042 84.9453 163.766C85.2318 163.484 85.4531 163.135 85.6094 162.719L87.3906 163.219C87.2031 163.823 86.888 164.354 86.4453 164.812C86.0026 165.266 85.4557 165.62 84.8047 165.875C84.1536 166.125 83.4219 166.25 82.6094 166.25ZM109.508 150V166H107.633L98.9141 153.437H98.7578V166H96.8203V150H98.6953L107.445 162.594H107.602V150H109.508ZM118.166 166.25C117.01 166.25 116.012 165.995 115.174 165.484C114.34 164.969 113.697 164.25 113.244 163.328C112.796 162.401 112.572 161.323 112.572 160.094C112.572 158.865 112.796 157.781 113.244 156.844C113.697 155.901 114.327 155.167 115.135 154.641C115.947 154.109 116.895 153.844 117.979 153.844C118.604 153.844 119.221 153.948 119.83 154.156C120.439 154.365 120.994 154.703 121.494 155.172C121.994 155.635 122.393 156.25 122.689 157.016C122.986 157.781 123.135 158.724 123.135 159.844V160.625H113.885V159.031H121.26C121.26 158.354 121.124 157.75 120.854 157.219C120.588 156.687 120.208 156.268 119.713 155.961C119.223 155.654 118.645 155.5 117.979 155.5C117.244 155.5 116.609 155.682 116.072 156.047C115.541 156.406 115.132 156.875 114.846 157.453C114.559 158.031 114.416 158.651 114.416 159.312V160.375C114.416 161.281 114.572 162.049 114.885 162.68C115.202 163.305 115.643 163.781 116.205 164.109C116.768 164.432 117.421 164.594 118.166 164.594C118.65 164.594 119.088 164.526 119.479 164.391C119.874 164.25 120.215 164.042 120.502 163.766C120.788 163.484 121.01 163.135 121.166 162.719L122.947 163.219C122.76 163.823 122.445 164.354 122.002 164.812C121.559 165.266 121.012 165.62 120.361 165.875C119.71 166.125 118.979 166.25 118.166 166.25ZM128.658 166L125.002 154H126.939L129.533 163.188H129.658L132.221 154H134.189L136.721 163.156H136.846L139.439 154H141.377L137.721 166H135.908L133.283 156.781H133.096L130.471 166H128.658ZM155.189 166H150.252V150H155.408C156.96 150 158.288 150.32 159.393 150.961C160.497 151.596 161.343 152.51 161.932 153.703C162.52 154.891 162.814 156.312 162.814 157.969C162.814 159.635 162.518 161.07 161.924 162.273C161.33 163.471 160.465 164.393 159.33 165.039C158.195 165.68 156.814 166 155.189 166ZM152.189 164.281H155.064C156.387 164.281 157.484 164.026 158.354 163.516C159.223 163.005 159.872 162.279 160.299 161.336C160.726 160.393 160.939 159.271 160.939 157.969C160.939 156.677 160.729 155.565 160.307 154.633C159.885 153.695 159.255 152.977 158.416 152.477C157.577 151.971 156.533 151.719 155.283 151.719H152.189V164.281ZM170.846 166.25C169.689 166.25 168.692 165.995 167.854 165.484C167.02 164.969 166.377 164.25 165.924 163.328C165.476 162.401 165.252 161.323 165.252 160.094C165.252 158.865 165.476 157.781 165.924 156.844C166.377 155.901 167.007 155.167 167.814 154.641C168.627 154.109 169.575 153.844 170.658 153.844C171.283 153.844 171.9 153.948 172.51 154.156C173.119 154.365 173.674 154.703 174.174 155.172C174.674 155.635 175.072 156.25 175.369 157.016C175.666 157.781 175.814 158.724 175.814 159.844V160.625H166.564V159.031H173.939C173.939 158.354 173.804 157.75 173.533 157.219C173.268 156.687 172.887 156.268 172.393 155.961C171.903 155.654 171.325 155.5 170.658 155.5C169.924 155.5 169.288 155.682 168.752 156.047C168.221 156.406 167.812 156.875 167.525 157.453C167.239 158.031 167.096 158.651 167.096 159.312V160.375C167.096 161.281 167.252 162.049 167.564 162.68C167.882 163.305 168.322 163.781 168.885 164.109C169.447 164.432 170.101 164.594 170.846 164.594C171.33 164.594 171.768 164.526 172.158 164.391C172.554 164.25 172.895 164.042 173.182 163.766C173.468 163.484 173.689 163.135 173.846 162.719L175.627 163.219C175.439 163.823 175.124 164.354 174.682 164.812C174.239 165.266 173.692 165.62 173.041 165.875C172.39 166.125 171.658 166.25 170.846 166.25ZM187.119 156.687L185.463 157.156C185.359 156.88 185.205 156.612 185.002 156.352C184.804 156.086 184.533 155.867 184.189 155.695C183.846 155.523 183.406 155.437 182.869 155.437C182.135 155.437 181.523 155.607 181.033 155.945C180.549 156.279 180.307 156.703 180.307 157.219C180.307 157.677 180.473 158.039 180.807 158.305C181.14 158.57 181.661 158.792 182.369 158.969L184.15 159.406C185.223 159.667 186.023 160.065 186.549 160.602C187.075 161.133 187.338 161.818 187.338 162.656C187.338 163.344 187.14 163.958 186.744 164.5C186.354 165.042 185.807 165.469 185.104 165.781C184.4 166.094 183.583 166.25 182.65 166.25C181.426 166.25 180.413 165.984 179.611 165.453C178.809 164.922 178.301 164.146 178.088 163.125L179.838 162.687C180.005 163.333 180.32 163.818 180.783 164.141C181.252 164.464 181.864 164.625 182.619 164.625C183.479 164.625 184.161 164.443 184.666 164.078C185.176 163.708 185.432 163.266 185.432 162.75C185.432 162.333 185.286 161.984 184.994 161.703C184.702 161.417 184.255 161.203 183.65 161.062L181.65 160.594C180.551 160.333 179.744 159.93 179.229 159.383C178.718 158.831 178.463 158.141 178.463 157.312C178.463 156.635 178.653 156.036 179.033 155.516C179.419 154.995 179.942 154.586 180.604 154.289C181.27 153.992 182.025 153.844 182.869 153.844C184.057 153.844 184.989 154.104 185.666 154.625C186.348 155.146 186.833 155.833 187.119 156.687ZM190.113 166V154H191.957V166H190.113ZM191.051 152C190.691 152 190.382 151.878 190.121 151.633C189.866 151.388 189.738 151.094 189.738 150.75C189.738 150.406 189.866 150.112 190.121 149.867C190.382 149.622 190.691 149.5 191.051 149.5C191.41 149.5 191.717 149.622 191.973 149.867C192.233 150.112 192.363 150.406 192.363 150.75C192.363 151.094 192.233 151.388 191.973 151.633C191.717 151.878 191.41 152 191.051 152ZM200.178 170.75C199.287 170.75 198.521 170.635 197.881 170.406C197.24 170.182 196.706 169.885 196.279 169.516C195.857 169.151 195.521 168.76 195.271 168.344L196.74 167.313C196.907 167.531 197.118 167.781 197.373 168.062C197.628 168.349 197.977 168.596 198.42 168.805C198.868 169.018 199.454 169.125 200.178 169.125C201.146 169.125 201.946 168.891 202.576 168.422C203.206 167.953 203.521 167.219 203.521 166.219V163.781H203.365C203.23 164 203.037 164.271 202.787 164.594C202.542 164.911 202.188 165.195 201.725 165.445C201.266 165.69 200.646 165.812 199.865 165.812C198.896 165.812 198.027 165.583 197.256 165.125C196.49 164.667 195.883 164 195.436 163.125C194.993 162.25 194.771 161.187 194.771 159.937C194.771 158.708 194.988 157.638 195.42 156.727C195.852 155.81 196.454 155.102 197.225 154.602C197.995 154.096 198.886 153.844 199.896 153.844C200.678 153.844 201.298 153.974 201.756 154.234C202.219 154.49 202.574 154.781 202.818 155.109C203.068 155.432 203.261 155.698 203.396 155.906H203.584V154H205.365V166.344C205.365 167.375 205.131 168.214 204.662 168.859C204.199 169.51 203.574 169.987 202.787 170.289C202.006 170.596 201.136 170.75 200.178 170.75ZM200.115 164.156C200.855 164.156 201.48 163.987 201.99 163.648C202.501 163.31 202.889 162.823 203.154 162.188C203.42 161.552 203.553 160.792 203.553 159.906C203.553 159.042 203.423 158.279 203.162 157.617C202.902 156.956 202.516 156.437 202.006 156.062C201.495 155.687 200.865 155.5 200.115 155.5C199.334 155.5 198.683 155.698 198.162 156.094C197.646 156.49 197.258 157.021 196.998 157.688C196.743 158.354 196.615 159.094 196.615 159.906C196.615 160.74 196.745 161.477 197.006 162.117C197.271 162.753 197.662 163.253 198.178 163.617C198.699 163.977 199.344 164.156 200.115 164.156ZM210.584 158.781V166H208.74V154H210.521V155.875H210.678C210.959 155.266 211.386 154.776 211.959 154.406C212.532 154.031 213.271 153.844 214.178 153.844C214.99 153.844 215.701 154.01 216.311 154.344C216.92 154.672 217.394 155.172 217.732 155.844C218.071 156.51 218.24 157.354 218.24 158.375V166H216.396V158.5C216.396 157.557 216.152 156.823 215.662 156.297C215.173 155.766 214.501 155.5 213.646 155.5C213.058 155.5 212.532 155.628 212.068 155.883C211.61 156.138 211.248 156.51 210.982 157C210.717 157.49 210.584 158.083 210.584 158.781Z" fill="url(#paint0_linear_714_2148)" />
	</g>
	<rect x="0.25" y="0.25" width="239.5" height="239.5" rx="15.75" stroke="black" stroke-width="0.5" stroke-dasharray="1 1" />
	<defs>
		<linearGradient id="paint0_linear_714_2148" x1="65" y1="116" x2="216.5" y2="166" gradientUnits="userSpaceOnUse">
			<stop stop-color="#AC64EA" />
			<stop offset="0.57" stop-color="#DCD6D3" />
			<stop offset="1" stop-color="#1C274C" />
		</linearGradient>
		<clipPath id="clip0_714_2148">
			<rect width="240" height="240" rx="16" fill="white" />
		</clipPath>
	</defs>
</svg>
